<!DOCTYPE svg PUBLIC "-//W3C//DTD SVG 20010904//EN" "http://www.w3.org/TR/2001/REC-SVG-20010904/DTD/svg10.dtd">
<svg version="1.0" xmlns="http://www.w3.org/2000/svg" width="400px" height="100px" viewBox="0 0 4000 1000" preserveAspectRatio="xMidYMid meet">
<g id="layer1" fill="#d5ad42" stroke="none">
 <path d="M1735 948 c-24 -14 -36 -25 -58 -58 -15 -22 -17 -62 -17 -398 0 -362 1 -375 21 -403 11 -16 40 -40 63 -54 38 -22 54 -25 149 -25 l107 0 0 330 0 330 170 0 170 0 0 104 c0 114 -11 140 -70 171 -37 19 -503 22 -535 3z m493 -90 c7 -7 12 -27 12 -45 0 -26 -6 -36 -25 -45 -52 -23 -100 46 -59 86 18 19 55 21 72 4z"/>
 <path d="M2397 953 c-4 -3 -7 -17 -7 -29 0 -22 95 -518 106 -556 5 -16 21 -18 154 -18 l148 0 11 51 c34 158 92 458 97 505 l7 54 -96 0 c-53 0 -99 -4 -102 -10 -3 -5 -9 -29 -13 -52 l-8 -43 -44 0 -45 0 -8 53 -9 52 -92 0 c-51 0 -96 -3 -99 -7z m270 -275 c-3 -18 -9 -60 -14 -93 l-7 -60 -7 55 c-14 107 -11 130 12 130 18 0 20 -4 16 -32z"/>
 <path d="M2967 953 c-4 -3 -7 -141 -7 -305 l0 -298 93 0 94 0 60 128 60 127 64 -127 64 -128 92 0 93 0 0 305 0 305 -85 0 c-73 0 -86 -3 -95 -19 -5 -11 -10 -71 -11 -133 l0 -113 -55 108 c-32 62 -60 107 -67 105 -7 -2 -35 -51 -64 -108 l-51 -105 -1 133 -1 132 -88 0 c-49 0 -92 -3 -95 -7z"/>
 <path d="M964 38 c-4 -7 -3 -8 4 -4 7 4 12 9 12 12 0 8 -9 4 -16 -8z"/>
 </g>
<g id="layer2" fill="#446785" stroke="none">
 <path d="M213 973 c26 -2 67 -2 90 0 23 2 2 3 -48 3 -50 0 -68 -1 -42 -3z"/>
 <path d="M411 934 l-31 -26 0 -273 c0 -272 0 -274 22 -289 12 -9 30 -16 40 -16 10 0 18 -4 18 -10 0 -6 43 -10 110 -10 174 0 134 -19 -47 -22 l-158 -3 -3 -70 c-4 -92 10 -135 58 -179 l40 -36 230 0 230 0 40 36 c22 20 45 52 51 73 6 22 9 108 7 222 -3 183 -3 186 -30 227 -34 50 -72 71 -141 78 -83 8 -94 12 -133 47 -55 47 -74 97 -74 195 l0 82 -99 0 c-92 0 -102 -2 -130 -26z m141 -767 c32 -50 -35 -103 -76 -61 -21 20 -20 43 1 66 18 20 61 17 75 -5z"/>
 <path d="M1230 863 l0 -96 -53 -101 c-56 -105 -78 -160 -97 -236 -6 -25 -14 -53 -16 -63 -5 -16 3 -17 103 -15 l108 3 30 101 30 100 30 -100 30 -101 107 -3 107 -3 -25 93 c-25 95 -80 226 -121 288 -20 30 -23 47 -23 132 l0 98 -105 0 -105 0 0 -97z"/>
 <path d="M3395 949 c-4 -6 -5 -12 -2 -15 2 -3 7 2 10 11 7 17 1 20 -8 4z"/>
 </g>

</svg>